<svg height="512pt" viewBox="-33 0 512 512.00119" width="512pt" xmlns="http://www.w3.org/2000/svg"><path d="m399.929688 464.050781-76.285157-25.28125-25.660156-8.523437c-3.953125-1.316406-7.519531-3.359375-10.558594-5.957032-6.519531-5.578124-10.628906-13.710937-11.007812-22.605468-.019531-.453125-.03125-.890625-.03125-1.34375v-36.929688h-105.949219v36.929688c0 .378906-.011719.757812-.023438 1.140625-.316406 8.976562-4.445312 17.191406-11.015624 22.808593-3.039063 2.597657-6.605469 4.640626-10.558594 5.957032l-25.660156 8.523437-76.285157 25.28125c-20.660156 6.863281-37.078125 21.613281-46.335937 40.246094-1.761719 3.542969.863281 7.703125 4.820312 7.703125h436.066406c3.957032 0 6.582032-4.160156 4.820313-7.703125-9.257813-18.632813-25.675781-33.382813-46.335937-40.246094zm0 0" fill="#fedfc5"/><path d="m276.417969 401.683594-10.851563 9.835937c-7.941406 7.199219-18.257812 11.175781-28.96875 11.175781h-26.125c-10.710937 0-21.039062-3.976562-28.976562-11.175781l-11.082032-10.042969c.011719-.378906.023438-.757812.023438-1.140624v-36.929688h105.949219v36.929688c0 .453124.011719.894531.03125 1.347656zm0 0" fill="#fecbaa"/><path d="m348.023438 201.148438-3.089844 38.785156-3.84375 48.054687c-3.601563 22.691407-14.847656 43.472657-31.875 58.90625l-43.652344 39.5625c-7.929688 7.199219-18.261719 11.179688-28.964844 11.179688h-26.128906c-10.703125 0-21.03125-3.980469-28.96875-11.179688l-43.648438-39.5625c-17.03125-15.433593-28.269531-36.210937-31.882812-58.90625l-4.957031-62.128906 169.171875-150.515625.007812-.019531c15.839844 6.378906 30.039063 15.910156 41.847656 27.777343 24.738282 24.871094 39.015626 60.027344 35.984376 98.046876zm0 0" fill="#fedfc5"/><path d="m312.039062 103.105469c-11.808593-11.871094-26.007812-21.402344-41.847656-27.78125l-.007812.019531-13.605469 12.101562c6.84375 4.597657 13.207031 9.84375 18.988281 15.660157 24.738282 24.867187 39.015625 60.023437 35.984375 98.042969l-3.089843 38.785156-3.84375 48.054687c-3.601563 22.691407-14.847657 43.472657-31.875 58.90625l-43.65625 39.5625c-6.640626 6.03125-14.96875 9.792969-23.789063 10.859375 1.710937.203125 3.4375.320313 5.171875.320313h26.128906c10.703125 0 21.03125-3.980469 28.960938-11.179688l43.65625-39.5625c17.023437-15.433593 28.273437-36.210937 31.875-58.90625l3.84375-48.054687 3.089844-38.785156c3.03125-38.019532-11.246094-73.175782-35.984376-98.042969zm0 0" fill="#fecbaa"/><path d="m270.195312 51.453125v23.878906l-169.1875 150.523438-1.960937-24.710938c-.0625-.832031-.121094-1.664062-.175781-2.496093-.441406-7.414063-.234375-14.703126.585937-21.832032 4.394531-38.359375 26.339844-71.746094 57.84375-91.503906.863281-.542969 1.695313-1.140625 2.476563-1.777344 5.800781-4.722656 9.210937-11.863281 9.292968-19.429687v-.257813l.019532-13.289062c0-13.964844 5.65625-26.597656 14.804687-35.757813 9.066407-9.058593 21.566407-14.695312 35.378907-14.800781 28.003906-.191406 50.921874 23.4375 50.921874 51.453125zm0 0" fill="#83d9ff"/><path d="m348.023438 201.144531-3.09375 38.789063-102.800782-98.125-7.90625-7.550782 35.960938-58.917968.011718-.019532c4.917969 1.980469 9.683594 4.261719 14.261719 6.839844 10.167969 5.6875 19.441407 12.753906 27.582031 20.941406 24.738282 24.871094 39.011719 60.027344 35.984376 98.042969zm0 0" fill="#83d9ff"/><g fill="#64baf2"><path d="m270.195312 75.324219-.007812.015625-9.261719 15.171875c5.203125 3.824219 10.105469 8.03125 14.644531 12.59375 24.734376 24.867187 39.011719 60.023437 35.980469 98.042969l-.511719 6.433593 33.894532 32.351563v-.003906l3.089844-38.78125c3.035156-38.019532-11.246094-73.175782-35.980469-98.042969-11.8125-11.871094-26.011719-21.402344-41.847657-27.78125zm0 0"/><path d="m315.117188 173.335938c-1.894532 0-3.789063-.691407-5.277344-2.09375l-44.925782-42.308594c-3.097656-2.917969-3.246093-7.792969-.328124-10.890625 2.914062-3.097657 7.789062-3.242188 10.886718-.324219l44.925782 42.308594c3.097656 2.914062 3.246093 7.789062.328124 10.886718-1.515624 1.609376-3.558593 2.421876-5.609374 2.421876zm0 0"/><path d="m273.769531 132.757812-31.636719 9.050782-7.90625-7.550782 35.960938-58.917968.007812-.019532c4.917969 1.980469 9.683594 4.261719 14.261719 6.839844l.195313.679688 5.730468 19.960937c3.6875 12.859375-3.746093 26.28125-16.613281 29.957031zm0 0"/></g><path d="m265.839844 125.222656-49.359375 14.121094-26.871094 7.691406 80.585937-71.703125 3.707032 12.929688 4.242187 14.777343c2.730469 9.519532-2.773437 19.460938-12.304687 22.183594zm0 0" fill="#83d9ff"/><path d="m273.902344 88.261719-57.421875 51.082031-26.871094 7.691406 80.585937-71.703125zm0 0" fill="#64baf2"/><path d="m224.445312 357.988281c-.058593 0-.117187-.003906-.175781-.003906-3.617187-.019531-7.1875-.628906-10.609375-1.8125-4.019531-1.390625-6.152344-5.773437-4.761718-9.792969 1.390624-4.023437 5.777343-6.152344 9.796874-4.765625 1.824219.632813 3.726563.957031 5.65625.96875 1.8125.035157 3.578126-.257812 5.296876-.789062 4.0625-1.261719 8.375 1.015625 9.636718 5.078125 1.257813 4.0625-1.015625 8.378906-5.078125 9.636718-3.167969.980469-6.449219 1.480469-9.761719 1.480469zm0 0" fill="#ffae85"/><path d="m203.6875 479.285156c-1.554688 0-3.121094-.46875-4.480469-1.441406-4.222656-3.027344-8.664062-4.859375-13.195312-5.449219-4.289063-.558593-7.46875.128907-11.492188.996094-4.554687.980469-9.714843 2.09375-16.589843 1.265625-7.367188-.890625-14.589844-3.832031-21.46875-8.738281-3.460938-2.472657-4.261719-7.28125-1.792969-10.742188 2.46875-3.464843 7.28125-4.265625 10.742187-1.796875 4.753906 3.394532 9.585938 5.40625 14.367188 5.984375 4.308594.519531 7.636718-.199219 11.496094-1.03125 4.59375-.988281 9.800781-2.113281 16.722656-1.210937 7.078125.917968 13.871094 3.679687 20.179687 8.199218 3.460938 2.476563 4.253907 7.289063 1.777344 10.746094-1.5 2.101563-3.867187 3.21875-6.265625 3.21875zm0 0" fill="#fecbaa"/><path d="m243.136719 479.285156c-2.398438 0-4.765625-1.117187-6.269531-3.21875-2.476563-3.457031-1.679688-8.269531 1.777343-10.746094 6.3125-4.523437 13.101563-7.28125 20.179688-8.199218 6.925781-.902344 12.132812.21875 16.726562 1.210937 3.855469.832031 7.1875 1.550781 11.496094 1.027344 4.777344-.574219 9.613281-2.589844 14.363281-5.980469 3.464844-2.472656 8.273438-1.667968 10.746094 1.792969 2.46875 3.464844 1.664062 8.273437-1.796875 10.746094-6.875 4.90625-14.097656 7.847656-21.464844 8.734375-6.875.828125-12.035156-.28125-16.589843-1.261719-4.023438-.867187-7.203126-1.554687-11.496094-.996094-4.53125.589844-8.972656 2.421875-13.195313 5.449219-1.359375.972656-2.925781 1.441406-4.476562 1.441406zm0 0" fill="#fecbaa"/><path d="m163.378906 137.175781-64.507812 61.472657c-.441406-7.414063-.234375-14.703126.585937-21.832032l53.292969-50.792968c3.082031-2.9375 7.949219-2.816407 10.886719.265624 2.9375 3.070313 2.816406 7.949219-.257813 10.886719zm0 0" fill="#64baf2"/><path d="m204.054688 68.480469-44.277344 15.054687c5.800781-4.722656 9.210937-11.859375 9.292968-19.429687l30.027344-10.207031c4.035156-1.375 8.398438.78125 9.765625 4.804687 1.375 4.027344-.78125 8.402344-4.808593 9.777344zm0 0" fill="#64baf2"/><path d="m196.726562 240.242188c-1.351562 0-2.722656-.355469-3.964843-1.101563-6.070313-3.652344-12.242188-5.582031-18.347657-5.738281-6.632812-.164063-13.347656 1.765625-19.953124 5.738281-3.644532 2.191406-8.375 1.015625-10.566407-2.632813-2.195312-3.644531-1.015625-8.375 2.628907-10.570312 9.15625-5.503906 18.667968-8.164062 28.277343-7.933594 8.800781.222656 17.515625 2.890625 25.902344 7.9375 3.644531 2.191406 4.820313 6.921875 2.628906 10.570313-1.445312 2.402343-3.996093 3.730469-6.605469 3.730469zm0 0" fill="#ffae85"/><path d="m298.9375 240.242188c-1.351562 0-2.722656-.355469-3.964844-1.101563-6.070312-3.652344-12.242187-5.582031-18.347656-5.738281-6.640625-.164063-13.347656 1.765625-19.953125 5.738281-3.644531 2.191406-8.375 1.015625-10.566406-2.632813-2.191407-3.644531-1.015625-8.375 2.628906-10.570312 9.15625-5.503906 18.660156-8.171875 28.277344-7.933594 8.804687.222656 17.515625 2.890625 25.902343 7.9375 3.644532 2.191406 4.820313 6.921875 2.628907 10.570313-1.445313 2.402343-3.996094 3.730469-6.605469 3.730469zm0 0" fill="#ffae85"/><path d="m182.191406 252.960938c0 4.738281-3.84375 8.578124-8.578125 8.578124-4.738281 0-8.578125-3.839843-8.578125-8.578124 0-4.734376 3.839844-8.574219 8.578125-8.574219 4.734375 0 8.578125 3.839843 8.578125 8.574219zm0 0" fill="#618aaa"/><path d="m284.402344 252.960938c0 4.738281-3.839844 8.578124-8.578125 8.578124s-8.578125-3.839843-8.578125-8.578124c0-4.734376 3.839844-8.574219 8.578125-8.574219s8.578125 3.839843 8.578125 8.574219zm0 0" fill="#618aaa"/><path d="m188.246094 334.207031c2.742187.753907 6.917968 1.441407 11.359375.039063 6.167969-1.949219 6.769531-6.019532 12.308593-7.121094 5.386719-1.074219 6.335938 2.472656 13.890626 2.371094 7.230468-.09375 8.53125-3.367188 13.011718-1.933594 4.75 1.523438 5.082032 5.773438 9.683594 6.871094 3.425781.816406 6.765625-.699219 9.121094-2.179688" fill="#fff"/><path d="m194.226562 342.761719c-2.601562 0-5.277343-.375-8.015624-1.125-4.101563-1.125-6.515626-5.363281-5.390626-9.464844s5.363282-6.515625 9.460938-5.394531c2.625.722656 4.980469.761718 7.003906.125 1.496094-.476563 2.230469-1.109375 3.5625-2.265625 1.996094-1.734375 4.734375-4.105469 9.558594-5.066407 4.957031-.988281 8.316406.351563 10.539062 1.238282 1.53125.613281 2.542969 1.007812 4.757813.988281 2.132813-.03125 3.28125-.449219 4.738281-.980469 2.335938-.855468 5.863282-2.144531 10.722656-.589844 4.316407 1.382813 6.65625 3.984376 8.207032 5.707032.320312.355468.746094.828125.964844 1.015625.425781.058593 1.480468-.144531 3.183593-1.21875 3.601563-2.265625 8.355469-1.179688 10.617188 2.421875 2.265625 3.601562 1.183593 8.355468-2.417969 10.621094-5.148438 3.238281-10.199219 4.296874-15.007812 3.152343-4.671876-1.113281-7.25-3.976562-8.789063-5.6875-.800781-.886719-1.074219-1.15625-1.296875-1.273437-.257812.085937-.613281.214844-.894531.316406-2.019531.738281-5.070313 1.855469-9.828125 1.917969-5.265625.046875-8.519532-1.226563-10.664063-2.082031-1.34375-.535157-1.34375-.535157-1.824219-.441407-.742187.148438-.996093.3125-2.476562 1.597657-1.890625 1.636718-4.472656 3.878906-9.015625 5.316406-2.46875.78125-5.042969 1.171875-7.695313 1.171875zm0 0" fill="#ffae85"/></svg>