<svg id="Capa_1" enable-background="new 0 0 512 512" height="512" viewBox="0 0 512 512" width="512" xmlns="http://www.w3.org/2000/svg"><g><path d="m256 .002s-66.348-1.228-50.239 64.521c-.346-1.411 13.97-7.051 15.058-7.466 19.513-7.442 43.008-8.165 63.101-2.424 7.709 2.203 15.642 5.361 22.32 9.89 16.108-65.75-50.24-64.521-50.24-64.521z" fill="#aa6a51"/><path d="m306.234 64.524c-5.942-4.033-12.879-6.978-19.765-9.123 5.839-41.121-24.363-51.733-41.245-54.452 6.322-1.027 10.776-.945 10.776-.945s66.346-1.231 50.234 64.52z" fill="#935b44"/><g><path d="m432.137 512c0-18.484-12.299-34.71-30.096-39.704l-81.746-22.94c-12.204-3.425-19.998-15.343-18.243-27.897l3.804-41.219h-99.712l3.804 41.219c1.755 12.554-6.039 24.472-18.243 27.897l-81.746 22.94c-17.796 4.994-30.096 21.22-30.096 39.704z" fill="#ffcebf"/></g><g><path d="m432.134 511.996h-21.5c-4.362-12.407-14.542-22.311-27.75-26.015l-80.929-24.773c-12.212-3.428-20.001-15.342-18.247-27.893l.595-53.077h21.551l-3.807 41.224c-1.755 12.551 6.045 24.476 18.247 27.893l81.75 22.947c17.795 4.986 30.09 21.211 30.09 39.694z" fill="#ffb09e"/></g><g><path d="m362.347 146.806-106.343-45.854v-.014l-.016.007-.016-.007v.014l-106.343 45.854-15.447 64.663c.103 15.764-.892 40.298 0 57.264 2.17 41.264 21.339 76.456 47.969 107 8.589 9.851 19.198 19.247 30.691 27.647 25.735 18.81 60.59 18.81 86.325 0 11.493-8.4 22.102-17.796 30.691-27.647 26.63-30.544 45.798-65.736 47.969-107 .825-15.688 0-57.264 0-57.264z" fill="#bbec6c"/></g><g><path d="m377.825 268.736c-2.165 41.265-21.336 76.455-47.966 106.996-8.59 9.852-19.201 19.252-30.695 27.647-15.825 11.576-35.118 16.03-53.611 13.351 11.648-1.724 22.978-6.414 32.942-14.08 11.494-8.826 22.105-18.708 30.695-29.073.138-.166.276-.333.413-.5 14.691-17.801 27.346-37.458 35.883-58.965 8.918-22.467 11.738-45.369 12.28-69.279.162-7.148.167-14.301-.077-21.447-.495-14.52-2.014-29.037-5.244-43.218l-9.503-41.724 19.406 8.364 15.476 64.663c.001 0 .822 41.573.001 57.265z" fill="#a2e62e"/></g><g fill="#ffcebf"><ellipse cx="202.293" cy="249.86" rx="41.596" ry="29.785"/><ellipse cx="309.707" cy="249.86" rx="41.596" ry="29.785"/><ellipse cx="256" cy="346.262" rx="41.596" ry="29.785"/></g><g><path d="m202.234 260.711c-.695 0-1.391-.034-2.087-.104-6.322-.63-12.285-4.178-15.952-9.491-2.422-3.51-1.541-8.318 1.969-10.74s8.317-1.542 10.74 1.969c1.09 1.579 2.963 2.716 4.773 2.896 2.249.224 4.718-.92 6.001-2.783 2.421-3.511 7.229-4.396 10.739-1.977 3.511 2.42 4.396 7.228 1.977 10.739-4.07 5.907-11.03 9.491-18.16 9.491z" fill="#537983"/></g><g><path d="m309.767 260.71c-7.131 0-14.091-3.583-18.161-9.489-2.419-3.511-1.535-8.319 1.977-10.739s8.319-1.534 10.739 1.977c1.283 1.863 3.754 3.004 6.002 2.783 1.809-.18 3.682-1.317 4.772-2.896 2.422-3.509 7.231-4.392 10.74-1.969 3.509 2.422 4.391 7.23 1.969 10.74-3.667 5.313-9.63 8.861-15.951 9.491-.695.069-1.393.102-2.087.102z" fill="#537983"/></g><g><path d="m256.212 355.542c-6.461 0-13.034-1.357-18.383-3.834-3.87-1.792-5.554-6.381-3.762-10.25 1.792-3.87 6.38-5.554 10.25-3.762 3.788 1.754 8.883 2.634 13.639 2.354 3.472-.205 6.916-1.034 9.697-2.336 3.86-1.806 8.458-.142 10.266 3.721 1.808 3.862.142 8.458-3.721 10.266-4.576 2.142-9.878 3.443-15.334 3.765-.879.051-1.765.076-2.652.076z" fill="#537983"/></g><path d="m133.871 259.213c10.867-82.246 81.066-155.653 166.281-155.653 17.389 0 34.161 2.643 49.936 7.55 0 0-31.913-79.126-143.175-57.892 0 0-62.163 14.157-91.608 81.628-11.032 25.278-13.96 61.176-2.85 86.502 2.979 6.792 6.368 13.411 10.23 19.736 10.216 16.732 11.186 18.129 11.186 18.129z" fill="#c4e2ff"/><path d="m350.086 111.105c-15.773-4.905-32.542-7.543-49.937-7.543-22.865 0-44.672 5.285-64.551 14.603-25.779-11.514-53.765-17.446-82.068-17.631-6.712-.041-12.458.055-17.918.568 11.888-14.228 22.495-23.976 33.814-31.201 20.371-13.013 37.489-16.687 37.489-16.687 68.522-13.074 106.945 11.915 126.361 33.035 12.099 13.177 16.81 24.856 16.81 24.856z" fill="#b3dafe"/><g><g><g><path d="m378.108 259.213c-8.554-64.742-55.835-114.869-112.604-146.512-27.392-15.269-58.031-23.817-89.355-25.333-11.976-.58-23.499-.529-29.361 1.294 5.483-6.038 13.935-12.595 13.935-12.595 12.189-9.35 23.476-15.865 37.351-20.409 15.276-5.002 31.269-7.641 47.311-8.164 10.082-.329 20.183.129 30.211 1.21 42.858 4.618 80.921 23.061 106.076 59.54 21.303 30.894 33.07 77.228 17.308 113.159-2.975 6.782-6.417 13.355-10.215 19.706-10.825 18.104-10.657 18.104-10.657 18.104z" fill="#c4e2ff"/></g></g><g><path d="m398.976 221.405c-2.966 6.783-6.457 13.326-10.211 19.704-10.657 18.104-10.657 18.104-10.657 18.104-1.232-9.329-3.433-18.35-6.173-27.053 2.33-4.279 4.495-8.661 6.455-13.136 15.763-35.929 4.002-82.263-17.302-113.153-22.906-33.23-56.525-51.486-94.722-57.972 3.079.205 6.157.482 9.236.811 42.856 4.618 80.919 23.06 106.072 59.532 21.304 30.9 33.065 77.235 17.302 113.163z" fill="#b3dafe"/></g></g></g></svg>