<svg id="Capa_1" enable-background="new 0 0 507 507" height="512" viewBox="0 0 507 507" width="512" xmlns="http://www.w3.org/2000/svg" xmlns:xlink="http://www.w3.org/1999/xlink"><linearGradient id="SVGID_1_" gradientUnits="userSpaceOnUse" x1="77.843" x2="199.874" y1="238.726" y2="528.094"><stop offset="0" stop-color="#ff819c"/><stop offset=".2067" stop-color="#fe7898"/><stop offset=".5484" stop-color="#fc5f8c"/><stop offset=".9808" stop-color="#f8367a"/><stop offset="1" stop-color="#f83479"/></linearGradient><linearGradient id="lg1"><stop offset="0" stop-color="#f82814" stop-opacity="0"/><stop offset="1" stop-color="#c0272d"/></linearGradient><linearGradient id="SVGID_2_" gradientUnits="userSpaceOnUse" x1="171.003" x2="157.85" xlink:href="#lg1" y1="395.08" y2="374.802"/><linearGradient id="SVGID_3_" gradientUnits="userSpaceOnUse" x1="41.455" x2="52.051" xlink:href="#lg1" y1="460.012" y2="411.784"/><linearGradient id="SVGID_4_" gradientUnits="userSpaceOnUse" x1="80.131" x2="109.635" xlink:href="#lg1" y1="269.704" y2="299.208"/><linearGradient id="lg2"><stop offset="0" stop-color="#8a7889"/><stop offset=".3344" stop-color="#867385"/><stop offset=".7039" stop-color="#7b667b"/><stop offset="1" stop-color="#6e566e"/></linearGradient><linearGradient id="SVGID_5_" gradientTransform="matrix(.707 .707 -.825 .589 323.893 -73.274)" gradientUnits="userSpaceOnUse" x1="173.154" x2="300.253" xlink:href="#lg2" y1="300.707" y2="300.707"/><linearGradient id="lg3"><stop offset="0" stop-color="#6e566e" stop-opacity="0"/><stop offset=".2944" stop-color="#674d66" stop-opacity=".294"/><stop offset="1" stop-color="#593b56"/></linearGradient><linearGradient id="SVGID_6_" gradientTransform="matrix(.707 .707 -.707 .707 264.825 -132.343)" gradientUnits="userSpaceOnUse" x1="217.113" x2="372.72" xlink:href="#lg3" y1="304.294" y2="304.294"/><linearGradient id="SVGID_7_" gradientTransform="matrix(.707 .707 -.707 .707 264.825 -132.343)" gradientUnits="userSpaceOnUse" x1="203.624" x2="350.42" y1="199.182" y2="199.182"><stop offset="0" stop-color="#f8f6fb"/><stop offset="1" stop-color="#efdcfb"/></linearGradient><linearGradient id="SVGID_8_" gradientTransform="matrix(.707 .707 -.707 .707 264.825 -132.343)" gradientUnits="userSpaceOnUse" x1="328.215" x2="236.691" xlink:href="#lg3" y1="305.03" y2="299.549"/><linearGradient id="SVGID_9_" gradientTransform="matrix(.707 .707 -.707 .707 264.825 -132.343)" gradientUnits="userSpaceOnUse" x1="162.866" x2="287.997" xlink:href="#lg2" y1="282.562" y2="282.562"/><linearGradient id="SVGID_10_" gradientTransform="matrix(.707 .707 -.707 .707 264.825 -132.343)" gradientUnits="userSpaceOnUse" x1="211.104" x2="256.592" xlink:href="#lg3" y1="371.274" y2="308.797"/><linearGradient id="SVGID_11_" gradientTransform="matrix(.707 .707 -.707 .707 264.825 -132.343)" gradientUnits="userSpaceOnUse" x1="182.938" x2="267.924" xlink:href="#lg3" y1="469.446" y2="469.446"/><linearGradient id="SVGID_12_" gradientTransform="matrix(-.707 -.707 .707 -.707 264.54 -925.557)" gradientUnits="userSpaceOnUse" x1="-750.835" x2="-736.577" xlink:href="#lg2" y1="-605.781" y2="-591.523"/><linearGradient id="lg4"><stop offset="0" stop-color="#cdec7a"/><stop offset=".2157" stop-color="#b0e995"/><stop offset=".5613" stop-color="#87e4bb"/><stop offset=".8347" stop-color="#6ee1d2"/><stop offset="1" stop-color="#65e0db"/></linearGradient><linearGradient id="SVGID_13_" gradientTransform="matrix(.707 .707 -.707 .707 265.109 -126.846)" gradientUnits="userSpaceOnUse" x1="174.534" x2="183.573" xlink:href="#lg4" y1="30.284" y2="39.323"/><linearGradient id="SVGID_14_" gradientTransform="matrix(-.707 -.707 .707 -.707 264.54 -925.557)" gradientUnits="userSpaceOnUse" x1="-750.835" x2="-736.577" xlink:href="#lg2" y1="-636.745" y2="-622.488"/><linearGradient id="SVGID_15_" gradientTransform="matrix(.707 .707 -.707 .707 265.109 -126.846)" gradientUnits="userSpaceOnUse" x1="174.534" x2="183.573" xlink:href="#lg4" y1="61.248" y2="70.288"/><linearGradient id="SVGID_16_" gradientTransform="matrix(-.707 -.707 .707 -.707 264.54 -925.557)" gradientUnits="userSpaceOnUse" x1="-750.835" x2="-736.577" xlink:href="#lg2" y1="-667.71" y2="-653.452"/><linearGradient id="SVGID_17_" gradientTransform="matrix(.707 .707 -.707 .707 265.109 -126.846)" gradientUnits="userSpaceOnUse" x1="174.534" x2="183.573" xlink:href="#lg4" y1="92.213" y2="101.252"/><linearGradient id="SVGID_18_" gradientUnits="userSpaceOnUse" x1="213.119" x2="194.132" xlink:href="#lg1" y1="386.991" y2="405.978"/><linearGradient id="SVGID_19_" gradientUnits="userSpaceOnUse" x1="167.448" x2="180.966" xlink:href="#lg1" y1="431.199" y2="417.681"/><linearGradient id="lg5"><stop offset="0" stop-color="#ffd945"/><stop offset=".3043" stop-color="#ffcd3e"/><stop offset=".8558" stop-color="#ffad2b"/><stop offset="1" stop-color="#ffa325"/></linearGradient><linearGradient id="SVGID_20_" gradientTransform="matrix(-.707 -.707 .707 -.707 1543.005 3971.849)" gradientUnits="userSpaceOnUse" x1="3695.434" x2="3684.123" xlink:href="#lg5" y1="1715.848" y2="1715.848"/><linearGradient id="SVGID_21_" gradientTransform="matrix(0 -1 1 0 1697.532 4955.383)" gradientUnits="userSpaceOnUse" x1="4778.917" x2="4767.606" xlink:href="#lg5" y1="-1544.271" y2="-1544.271"/><linearGradient id="SVGID_22_" gradientUnits="userSpaceOnUse" x1="114.066" x2="102.756" xlink:href="#lg5" y1="137.271" y2="137.271"/><g><g><path d="m84.236 507c-16.542 0-33.083-6.296-45.677-18.889-25.186-25.186-25.186-66.167 0-91.353l11.874-11.874c5.351-5.351 14.025-5.351 19.376 0 5.35 5.351 5.35 14.025 0 19.376l-11.874 11.874c-7.025 7.025-10.894 16.365-10.894 26.3s3.869 19.275 10.894 26.3c14.502 14.502 38.099 14.502 52.601 0l59.366-59.366-75.085-75.085c-40.794-40.794-40.794-107.172 0-147.966 5.351-5.351 14.025-5.351 19.376 0 5.35 5.351 5.35 14.025 0 19.376-30.11 30.11-30.11 79.103 0 109.213l75.085 75.085 17.257-17.257c20.2-20.2 53.067-20.2 73.267 0 9.786 9.785 15.174 22.795 15.174 36.633s-5.388 26.848-15.174 36.634c-20.201 20.199-53.067 20.2-73.267 0l-17.257-17.258-59.366 59.366c-12.592 12.595-29.134 18.891-45.676 18.891zm124.418-97.631 17.258 17.258c9.516 9.516 24.999 9.516 34.515 0 4.61-4.61 7.148-10.738 7.148-17.258 0-6.519-2.538-12.647-7.148-17.257-4.609-4.61-10.738-7.149-17.258-7.149-6.519 0-12.647 2.539-17.257 7.149z" fill="url(#SVGID_1_)"/><path d="m157.383 358.097-19.377 19.376 31.896 31.896 19.376-19.377z" fill="url(#SVGID_2_)"/><path d="m57.936 468.734c-7.025-7.025-10.894-16.365-10.894-26.3 0-9.934 3.869-19.275 10.894-26.3l11.874-11.874c5.35-5.351 5.35-14.025 0-19.376-5.351-5.351-14.025-5.351-19.376 0l-11.874 11.874c-25.186 25.186-25.186 66.167 0 91.353 2.265 2.265 4.662 4.319 7.16 6.176l19.743-19.743c-2.69-1.572-5.224-3.506-7.527-5.81z" fill="url(#SVGID_3_)"/><path d="m64.443 266.758c1.424 23.239 10.539 46.08 27.356 64.351l19.391-19.391c-18.988-21.249-24.153-50.555-15.508-76.198z" fill="url(#SVGID_4_)"/><g><path d="m250.345 340.668 230.033-161.79c8.704-6.121 9.318-17.526 1.371-25.472l-59.705-59.705c-7.946-7.946-21.443-9.425-30.147-3.304l-230.033 161.79c-5.858 4.12-10.523 9.321-13.69 15.264l-11.003 20.644c-3.168 5.943-7.832 11.144-13.69 15.264l-87.24 61.359c-18.176 12.784-19.458 36.6-2.864 53.195 16.595 16.595 44.782 19.684 62.958 6.9l87.24-61.359c5.858-4.12 12.777-7.067 20.307-8.647l26.156-5.491c7.53-1.582 14.449-4.528 20.307-8.648z" fill="url(#SVGID_5_)"/><path d="m481.276 178.205c9.888-7.891-1.857-22.948-12.156-15.601l-224.539 160.183c-6.063 4.326-13.186 7.475-20.903 9.244l-26.808 6.143c-7.717 1.768-14.84 4.918-20.903 9.244l-90.3 64.419c-16.545 11.803-40.735 11.232-57.616-.362 1.505 2.233 3.278 4.391 5.325 6.439 16.595 16.595 44.782 19.684 62.958 6.9l87.24-61.359c5.858-4.12 12.777-7.067 20.307-8.647l26.156-5.491c7.53-1.581 14.449-4.527 20.307-8.647l230.034-161.79c.31-.22.609-.444.898-.675z" fill="url(#SVGID_6_)"/><g><path d="m456.302 171.748-74.354-74.353-198.518 139.624 75.518 75.519z" fill="url(#SVGID_7_)"/></g><path d="m434.057 105.713-12.012-12.012c-7.946-7.946-21.443-9.425-30.147-3.304l-230.033 161.79c-5.858 4.12-10.523 9.321-13.69 15.264l-11.003 20.644c-3.168 5.943-7.832 11.144-13.69 15.264l-87.24 61.359c-18.176 12.784-19.458 36.6-2.864 53.195 16.595 16.595 44.782 19.684 62.958 6.9l87.24-61.359c5.858-4.12 12.777-7.067 20.307-8.647l26.156-5.491c7.53-1.581 14.449-4.527 20.307-8.647l183.712-129.211v-105.745z" fill="url(#SVGID_8_)"/><g><path d="m235.314 304.456 210.016-210.016c7.946-7.946 7.946-20.829 0-28.776l-59.705-59.704c-7.946-7.946-20.829-7.946-28.775 0l-210.016 210.015c-5.348 5.348-9.509 11.764-12.211 18.828l-9.386 24.539c-2.702 7.064-6.863 13.48-12.211 18.828l-79.649 79.649c-16.595 16.595-16.595 43.5 0 60.094 16.595 16.595 43.5 16.595 60.094 0l79.649-79.649c5.348-5.348 11.764-9.509 18.828-12.211l24.539-9.387c7.064-2.701 13.479-6.862 18.827-12.21z" fill="url(#SVGID_9_)"/><path d="m139.601 224.967c-1.985 3.092-3.658 6.385-4.978 9.836l-9.387 24.539c-1.32 3.451-2.993 6.744-4.978 9.836l61.853 61.853c3.092-1.985 6.385-3.658 9.836-4.978l24.539-9.387c3.451-1.32 6.744-2.993 9.836-4.978z" fill="url(#SVGID_10_)"/><path d="m93.469 417.915 87.763-87.763-60.094-60.094-87.761 87.761c-16.595 16.595-16.595 43.5 0 60.094 16.593 16.594 43.497 16.595 60.092.002z" fill="url(#SVGID_11_)"/><g><circle cx="367.109" cy="24.086" fill="url(#SVGID_12_)" r="10.379"/><circle cx="367.109" cy="24.086" fill="url(#SVGID_13_)" r="6.581"/></g><g><circle cx="345.214" cy="45.982" fill="url(#SVGID_14_)" r="10.379"/><circle cx="345.214" cy="45.982" fill="url(#SVGID_15_)" r="6.581"/></g><g><circle cx="323.319" cy="67.877" fill="url(#SVGID_16_)" r="10.379"/><circle cx="323.319" cy="67.877" fill="url(#SVGID_17_)" r="6.581"/></g></g></g><path d="m208.654 409.368 17.257-17.257c2.432-2.432 5.294-4.269 8.405-5.479l-20.171-20.171c-2.683 1.816-5.236 3.9-7.61 6.274l-17.257 17.257z" fill="url(#SVGID_18_)"/><path d="m148.169 431.102 19.376 19.376 21.733-21.733-19.376-19.376z" fill="url(#SVGID_19_)"/><g><g><path d="m155.065 135.467c2.147 2.147 2.147 5.627 0 7.774l-14.094 14.094c-2.147 2.147-5.627 2.147-7.774 0-2.147-2.147-2.147-5.627 0-7.774l14.094-14.094c2.147-2.147 5.628-2.147 7.774 0z" fill="url(#SVGID_20_)"/></g><g><path d="m168.724 177.746c0 3.036-2.461 5.497-5.497 5.497h-19.932c-3.036 0-5.497-2.461-5.497-5.497 0-3.036 2.461-5.497 5.497-5.497h19.932c3.036.001 5.497 2.462 5.497 5.497z" fill="url(#SVGID_21_)"/></g><g><path d="m112.786 152.734c-3.036 0-5.497-2.461-5.497-5.497v-19.932c0-3.036 2.461-5.497 5.497-5.497 3.036 0 5.497 2.461 5.497 5.497v19.932c0 3.036-2.461 5.497-5.497 5.497z" fill="url(#SVGID_22_)"/></g></g></g></g></svg>