<svg height="512" viewBox="0 0 58 59" width="512" xmlns="http://www.w3.org/2000/svg"><g id="013---Hair-Dye" fill="none"><path id="Shape" d="m17.05 50.82c-12.888-.766-15.019-3.864-16.443-5.5-.10749315-.1246325-.14585662-.2946138-.10231394-.4533339s.16327212-.2853308.31931394-.3376661c6.652-2.315 1.143-14.99 2.136-25.359s9.33-11.44 12.26-11.5c.182 0 .7-.01 1.03.02 4.3706379-2.19029401 9.2795845-3.07557079 14.14-2.55 16.47 1.72 13.59 19.84 13.59 19.84-.453 8.311-2.234 13.276-.45 17.09-5.12.3-9.53 1.5-9.53 2.93 0 .47.48.92 1.32 1.32-.057.114-.124-.336.72 3.86-4.904.808-6.921.64-18.99.64z" fill="#a56a43"/><path id="Shape" d="m29.99 51c.0026609.5321635-.2068776 1.0434441-.5822391 1.4206825-.3753616.3772383-.8855908.5893242-1.4177609.5893175h-8.94c-1.1047885-.0053718-2.0013735-.8952824-2.015-2v-10.09c3.6417648 3.4039383 9.2982352 3.4039383 12.94 0 0 8.069-.008 9.8.015 10.08z" fill="#f9c795"/><g fill="#393f4a"><path id="Shape" d="m36.712 16.2c-.2651948-.0000566-.5195073-.1054506-.707-.293l-4.95-4.95c-.3789722-.3923789-.3735524-1.01608478.0121814-1.40181858.3857338-.38573379 1.0094397-.39115363 1.4018186-.01218142l4.95 4.95c.2859079.2859943.3714219.7160366.216678 1.0896546-.1547439.3736179-.5192821.6172591-.923678.6173454z"/><path id="Shape" d="m39.541 13.374c-.2653486.0007185-.5199469-.1047939-.707-.293l-4.95-4.949c-.3904653-.3910176-.3900176-1.02453468.001-1.415s1.0245347-.3900176 1.415.001l4.95 4.949c.2861664.2862515.3715538.7167797.2162966 1.0905795-.1552573.3737999-.5205366.6171442-.9252966.6164205z"/><path id="Shape" d="m42.369 10.546c-.2651948-.0000566-.5195073-.1054506-.707-.293l-4.949-4.953c-.3789722-.39237889-.3735524-1.01608478.0121814-1.40181858.3857338-.38573379 1.0094397-.39115363 1.4018186-.01218142l4.949 4.95c.2880627.28570698.374949.71714786.219931 1.09208522-.155018.37493738-.5212128.61905168-.926931.61791478z"/><path id="Shape" d="m45.2 7.718c-.2655413.00020875-.5202623-.10520544-.708-.293l-4.949-4.95c-.3789722-.39237889-.3735524-1.01608478.0121814-1.40181858.3857338-.38573379 1.0094397-.39115363 1.4018186-.01218142l4.95 4.949c.2866239.28589995.3725934.71640717.2177586 1.09046359-.1548349.37405642-.5199229.61785537-.9247586.61753641z"/></g><path id="Shape" d="m56.68 46.32c-4.618 2.22-16.718 2.232-21.36 0-.84-.4-1.32-.85-1.32-1.32 0-1.43 4.41-2.63 9.53-2.93.81-.04 1.64-.07 2.47-.07 7.707 0 15.126 2.2 10.68 4.32z" fill="#35495e"/><path id="Shape" d="m12.39 34.05h-.02c-1.2-.18-4.37-1.13-4.37-6.09 0-4.84 2.4-3.555 3.43-2.82 3.97 2.829 5.007 6.048.96 8.91z" fill="#f9c795"/><path id="Shape" d="m39 27.96c0 4.96-3.17 5.91-4.37 6.09l-.02-.01c-4.3-2.665-4.291-5.052.96-8.9 1.021-.748 3.43-2.02 3.43 2.82z" fill="#f9c795"/><path id="Shape" d="m56.72 46.4c-2.001 10.006-1.72 7.932-1.72 10.6-.0032948 1.1032019-.8967981 1.9967052-2 2h-14c-1.1032019-.0032948-1.9967052-.8967981-2-2v-2c-1.852-9.26-1.74-8.56-1.68-8.68 4.618 2.22 16.718 2.232 21.36 0z" fill="#4482c3"/><path id="Shape" d="m49 56c0 .5522847-.4477153 1-1 1h-11v-2h11c.5522847 0 1 .4477153 1 1z" fill="#285680"/><path id="Shape" d="m35.58 23.77c.104833 3.4503453-.2210145 6.9002977-.97 10.27-.749601 3.1679064-2.3586262 6.0676119-4.65 8.38-3.6415707 3.4044301-9.2984293 3.4044301-12.94 0-2.3017865-2.2975373-3.9068851-5.1991952-4.63-8.37-.7528497-3.3724782-1.0787382-6.8262241-.97-10.28 0-4.728 1.062-7.823 2.855-9.792.2074285-.2385525.5154399-.3649767.8306481-.3409421s.6004904.1956975.7693519.4629421c1.026 1.735 3.2 3.9 7.621 3.9 6.57 0 8.186.117 11.122 2.864.7593696.7637595 1.1156462 1.8399964.962 2.906z" fill="#fdd7ad"/><path id="Shape" d="m45.844 5.95c1.672 1.672 3.094 2.834 3.415 5.518.2345154 2.4592825 1.2914553 4.7676393 3 6.552l4.779 4.78c.7791963.736503 1.1062836 1.8327561.8580515 2.8758114-.2482322 1.0430553-1.0340716 1.8744478-2.0615001 2.181-1.0274284.3065523-2.1403552.0416916-2.9195514-.6948114l-4.9-4.9c-1.7844942-1.708348-4.0927791-2.765255-6.552-3-1.5526965-.1866094-2.9971439-.8912179-4.1-2l-1.414-1.414c-.3903819-.3904999-.3903819-1.0235001 0-1.414l8.481-8.484c.3904999-.39038194 1.0235001-.39038194 1.414 0z" fill="#464f5d"/></g></svg>