<svg id="Capa_1" enable-background="new 0 0 496.656 496.656" height="512" viewBox="0 0 496.656 496.656" width="512" xmlns="http://www.w3.org/2000/svg"><g><path d="m381.52 131.348v16.374c0 10.025-8.127 18.152-18.152 18.152-10.025 0-18.152-8.127-18.152-18.152v-84.942h36.304z" fill="#ca2e43"/><g><path d="m402.38 74.164h-244.786c-4.143 0-7.5-3.358-7.5-7.5s3.357-7.5 7.5-7.5h244.786c4.143 0 7.5 3.358 7.5 7.5s-3.357 7.5-7.5 7.5z" fill="#d7d0d6"/></g><g id="XMLID_172_"><g><path d="m223.196 21.366h-34.34l-21.122 26.275v47.241l21.122 17.074h34.34c4.82 0 8.74-3.91 8.74-8.74v-73.11c0-4.82-3.92-8.74-8.74-8.74z" fill="#efedef"/></g></g><g><g id="XMLID_168_"><g fill="#ffe5c2"><path d="m185.636 452.026v44.63h-114.188c-6.369 0-11.532-5.163-11.532-11.531v-124.849c0-21.72 12.14-40.61 30-50.25h65.72c17.86 9.64 30 28.53 30 50.25z"/><path d="m311.356 466.656v30h-125.72v-44.63-91.75-66.66c0-21.72 12.14-40.61 30-50.26h65.72c17.86 9.65 30 28.54 30 50.26v66.66z"/><path d="m437.076 360.276v124.849c0 6.369-5.163 11.531-11.531 11.531h-114.189v-30-106.38c0-21.72 12.14-40.61 30-50.25h65.72c17.86 9.64 30 28.53 30 50.25z"/></g></g></g><g><path d="m281.356 243.356h-2.86-62.86c-17.86 9.65-30 28.54-30 50.26v66.66 91.75 44.63h62.86v-44.63-44.406c0-13.402 8.216-25.261 20.556-30.489 18.966-8.036 32.304-26.839 32.304-48.7v-67.079c-5.13-7.472-11.986-13.666-20-17.996z" fill="#fed2a4"/><path d="m215.636 328.43v-134.4c0-18.148 14.712-32.86 32.86-32.86 18.148 0 32.86 14.712 32.86 32.86v134.4c0 18.148-14.712 32.86-32.86 32.86-18.148.001-32.86-14.711-32.86-32.86z" fill="#eb5569"/><path d="m155.636 310.026h-2.86-62.86c-17.86 9.64-30 28.53-30 50.25v124.849c0 6.369 5.163 11.531 11.531 11.531h62.86c-6.369 0-11.531-5.163-11.531-11.531v-20.95c0-8.533 5.81-15.847 14.036-18.115 22.356-6.164 38.823-26.679 38.823-50.969l.007-67.084c-5.131-7.468-11.993-13.656-20.006-17.981z" fill="#fed2a4"/><path d="m89.915 395.091v-134.4c0-18.148 14.712-32.86 32.86-32.86 18.148 0 32.86 14.712 32.86 32.86v134.4c0 18.148-14.712 32.86-32.86 32.86-18.148.001-32.86-14.711-32.86-32.86z" fill="#eb5569"/><path d="m407.076 310.026h-2.86-62.86c-17.86 9.64-30 28.53-30 50.25v106.38 30h62.86v-34.959c0-7.219 5.162-13.306 12.236-14.747 23.226-4.732 40.626-25.123 40.626-50.005v-68.928c-5.13-7.473-11.987-13.665-20.002-17.991z" fill="#fed2a4"/><path d="m407.078 395.091v-134.4c0-18.148-14.712-32.86-32.86-32.86-18.148 0-32.86 14.712-32.86 32.86v134.4c0 18.148 14.712 32.86 32.86 32.86 18.148.001 32.86-14.711 32.86-32.86z" fill="#eb5569"/><g fill="#e53950"><path d="m252.506 304.517v-134.4c0-2.956.397-5.819 1.129-8.544-1.675-.263-3.39-.403-5.138-.403-18.148 0-32.86 14.712-32.86 32.86v134.4c0 18.148 14.712 32.86 32.86 32.86 15.192 0 27.97-10.312 31.732-24.316-15.708-2.467-27.723-16.058-27.723-32.457z"/><path d="m126.785 371.177v-134.4c0-2.956.397-5.819 1.129-8.544-1.675-.263-3.39-.403-5.138-.403-18.148 0-32.86 14.712-32.86 32.86v134.4c0 18.148 14.712 32.86 32.86 32.86 15.192 0 27.97-10.312 31.732-24.316-15.708-2.466-27.723-16.057-27.723-32.457z"/><path d="m378.227 371.177v-134.4c0-2.956.397-5.819 1.129-8.544-1.675-.263-3.39-.403-5.138-.403-18.148 0-32.86 14.712-32.86 32.86v134.4c0 18.148 14.712 32.86 32.86 32.86 15.192 0 27.97-10.312 31.732-24.316-15.708-2.466-27.723-16.057-27.723-32.457z"/></g><g><path d="m261.414 427.327h-24.306c-4.143 0-7.5-3.358-7.5-7.5s3.357-7.5 7.5-7.5h24.306c4.143 0 7.5 3.358 7.5 7.5s-3.357 7.5-7.5 7.5z" fill="#fed2a4"/></g><path d="m248.496 412.327h-11.388c-4.143 0-7.5 3.358-7.5 7.5s3.357 7.5 7.5 7.5h11.388z" fill="#ffbd86"/><g><path d="m277.866 462.102h-57.21c-4.143 0-7.5-3.358-7.5-7.5s3.357-7.5 7.5-7.5h57.21c4.143 0 7.5 3.358 7.5 7.5s-3.357 7.5-7.5 7.5z" fill="#fed2a4"/></g><path d="m220.656 447.102c-4.143 0-7.5 3.358-7.5 7.5s3.357 7.5 7.5 7.5h27.84v-10.076-4.924z" fill="#ffbd86"/><path d="m470.88 66.664c0-37.862-31.564-68.351-69.813-66.592-34.152 1.571-61.872 29.291-63.443 63.443-1.76 38.249 28.73 69.812 66.592 69.812.666 0 1.33-.01 1.992-.03 4.374-.13 7.958 3.462 7.958 7.839v47.391c0 10.025 8.127 18.152 18.152 18.152 10.025 0 18.152-8.127 18.152-18.152v-70.67c0-1.997.763-3.917 2.136-5.366 11.32-11.945 18.274-28.07 18.274-45.827z" fill="#eb5569"/><path d="m435.675 159.352v-47.391c0-4.376-3.584-7.969-7.958-7.839-.661.02-1.325.03-1.992.03-37.862 0-68.351-31.563-66.592-69.812.326-7.079 1.79-13.874 4.186-20.224-14.887 11.629-24.776 29.407-25.696 49.4-1.76 38.249 28.73 69.812 66.592 69.812.666 0 1.33-.01 1.992-.03 4.374-.13 7.958 3.462 7.958 7.839v47.391c0 10.025 8.127 18.152 18.152 18.152s18.152-8.127 18.152-18.152v-11.347c-8.419-1.576-14.794-8.952-14.794-17.829z" fill="#e53950"/><path d="m402.38 59.164h-64.394c-.162 1.439-.295 2.887-.362 4.352-.166 3.616-.042 7.172.347 10.648h64.409c4.143 0 7.5-3.358 7.5-7.5s-3.357-7.5-7.5-7.5z" fill="#ca2e43"/><path d="m377.92 80.466 51.132 5.184c4.26.432 7.96-2.912 7.96-7.194v-23.584c0-4.282-3.7-7.626-7.96-7.194l-51.132 5.184c-3.692.374-6.501 3.483-6.501 7.194v13.216c0 3.711 2.809 6.82 6.501 7.194z" fill="#ca2e43"/></g><path d="m188.882 21.366h-129.746c-18.43 0-33.36 14.94-33.36 33.36v23.88c0 18.42 14.93 33.35 33.36 33.35h129.746z" fill="#baafb9"/><path d="m221 70.87h-53.266v24.012l21.122 17.074h34.34c4.82 0 8.74-3.91 8.74-8.74v-32.346z" fill="#e5e1e5"/><path d="m91.28 70.87c-18.43 0-33.36-14.93-33.36-33.35v-16.124c-17.865.641-32.144 15.317-32.144 33.329v23.88c0 18.42 14.93 33.35 33.36 33.35h129.746v-41.085z" fill="#aa9ea9"/></g></svg>