<svg id="Capa_1" enable-background="new 0 0 512 512" height="512" viewBox="0 0 512 512" width="512" xmlns="http://www.w3.org/2000/svg"><g><path d="m340.297 218.749c13.111-47.913 39.028-94.681 67.935-135.86 8.878-12.647 4.361-30.202-9.553-36.922-37.77-18.244-80.683-30.242-142.679-30.242s-104.909 11.998-142.68 30.241c-13.914 6.721-18.431 24.275-9.553 36.922 28.908 41.18 54.825 87.947 67.935 135.86h168.595z" fill="#f6ee86"/><path d="m158.335 179.952c5.271 12.788 9.797 25.749 13.368 38.796h168.595c3.57-13.048 8.096-26.009 13.368-38.796z" fill="#f1d88c"/><g fill="#f1d88c"><path d="m227.989 226.249c-4.142 0-7.5-3.358-7.5-7.5 0-40.282-16.388-97.144-27.464-122.89-1.637-3.805.121-8.217 3.926-9.854 3.804-1.638 8.216.121 9.854 3.926 11.568 26.891 28.685 86.429 28.685 128.818-.001 4.142-3.359 7.5-7.501 7.5z"/><path d="m278.651 226.249c-4.143 0-7.5-3.358-7.5-7.5 0-42.389 17.116-101.927 28.685-128.818 1.637-3.804 6.049-5.563 9.854-3.926s5.563 6.048 3.926 9.854c-11.076 25.746-27.464 82.608-27.464 122.89-.001 4.142-3.358 7.5-7.501 7.5z"/></g><path d="m427.212 58.208c-3.01-11.573-10.917-21.196-21.693-26.402-45.541-21.997-91.655-31.806-149.519-31.806-57.582 0-103.527 9.714-148.853 31.485-8.592 4.127-15.734 10.936-19.776 19.568-6.326 13.51-4.815 28.99 3.526 40.871 3.609 5.141 7.082 10.254 10.427 15.339 5.487 8.342 15.115 12.999 25.051 12.019 43.641-4.305 87.194-23.242 129.625-23.242 4.463 0 8.939.212 13.425.595 5.229.446 9.226 4.863 9.226 10.111v28.71c0 12.272 9.949 22.221 22.222 22.221 12.273 0 22.222-9.949 22.222-22.221v-15.797c0-6.578 6.162-11.416 12.553-9.858 16.482 4.018 33.033 7.778 49.597 9.444 10.11 1.017 19.93-3.623 25.517-12.111 3.319-5.043 6.764-10.113 10.342-15.21 6.898-9.828 9.124-22.117 6.108-33.716z" fill="#fbf1cf"/><path d="m107.147 31.485c-8.591 4.127-15.734 10.936-19.776 19.568-6.326 13.51-4.815 28.99 3.526 40.871 3.609 5.141 7.082 10.254 10.427 15.339 5.487 8.342 15.115 12.999 25.051 12.019 30.399-2.999 60.755-13.092 90.72-18.945-39.184-12.176-53.34-69.344-28.541-94.975-28.762 4.98-55.19 13.53-81.407 26.123z" fill="#f7dfb7"/><path d="m351.898 471.87c-14.041-31.99-17.629-66.812-17.629-86.603h-156.539c0 19.791-3.587 54.613-17.629 86.603-8.297 18.902 5.174 40.13 25.817 40.13h140.163c20.644 0 34.114-21.228 25.817-40.13z" fill="#e0b799"/><path d="m345.411 454.772c-8.702-26.711-11.142-53.206-11.142-69.505h-156.539c0 16.3-2.439 42.794-11.142 69.505z" fill="#d99a84"/><path d="m345.182 425.243c11.664 0 22.669-5.622 29.332-15.195 17.621-25.315 23.098-58.2 23.098-88.052 0-27.41-4.618-57.378-19.015-81.695-7.975-13.47-22.645-21.552-38.299-21.552h-168.595c-15.654 0-30.324 8.082-38.299 21.552-14.397 24.317-19.015 54.285-19.015 81.695 0 29.852 5.477 62.736 23.098 88.052 6.663 9.573 17.668 15.195 29.332 15.195z" fill="#e0b799"/><path d="m195.989 218.749h-24.286c-15.654 0-30.324 8.082-38.299 21.552-14.397 24.317-19.015 54.285-19.015 81.695 0 29.851 5.477 62.736 23.098 88.052 6.663 9.573 17.668 15.195 29.332 15.195h69.421c-64.75-43.951-58.27-149.877-40.251-206.494z" fill="#d99a84"/><g><path d="m161.604 374.233c-13.017-4.547-27.47-4.567-40.763-.637 1.34 4.815 2.923 9.551 4.771 14.168 10.153-2.902 21.14-2.831 31.046.63 15.75 5.501 26.372 18.503 30.318 36.849h15.297c-4.414-24.974-19.115-43.481-40.669-51.01z" fill="#e0b799"/><g fill="#d99a84"><path d="m387.938 260.297c-2.014-5.569-4.396-10.985-7.19-16.174-37.476-3.606-52.376 16.666-65.773 34.896-11.178 15.211-20.982 28.558-44.042 28.557-2.617 0-5.408-.172-8.389-.533-21.464-2.599-25.092-48.285-2.27-88.294h-17.034c-14.736 29.843-16.613 61.034-9.215 80.269 5.119 13.312 14.607 21.45 26.716 22.917 3.665.444 7.112.653 10.37.653 30.458-.002 43.931-18.33 55.95-34.686 13.449-18.3 25.252-34.341 60.877-27.605z"/><path d="m389.239 379.919c-41.498-10.972-70.557-9.325-88.619 4.992-13.424 10.64-17.888 26.037-19.004 40.333h15.073c1.018-10.648 4.355-21.529 13.248-28.578 13.733-10.887 38.52-11.781 73.765-2.695 2.124-4.556 3.96-9.254 5.537-14.052z"/></g></g><path d="m114.388 321.996c0 7.85.393 15.91 1.272 23.986h280.68c.879-8.077 1.272-16.136 1.272-23.986s-.396-15.91-1.275-23.986h-280.674c-.879 8.076-1.275 16.136-1.275 23.986z" fill="#4e5660"/><path d="m183.731 298.01h-68.068c-.879 8.077-1.275 16.137-1.275 23.986 0 7.85.393 15.91 1.272 23.986h72.403c-3.225-15.656-4.493-31.966-4.332-47.972z" fill="#3a4351"/></g></svg>