<svg height="512" viewBox="0 0 512 512" width="512" xmlns="http://www.w3.org/2000/svg"><path d="m460.821 257.537-4.821 14.463-48 48-384-32v96h432l32-112v-10.053a13.947 13.947 0 0 0 -13.947-13.947 13.947 13.947 0 0 0 -13.232 9.537z" fill="#feb784"/><path d="m408 368a15.979 15.979 0 0 1 -16 16h-104l-56-176-46.44 56.76-97.56 119.24h-64v-96l157.55-143.23a64.491 64.491 0 0 1 104.8 28.06l49.65 155.17 40 24h16a16 16 0 0 1 16 16z" fill="#fec9a3"/><path d="m456 160h32v48h-32z" fill="#fec9a3"/><path d="m185.56 264.76-97.56 119.24h-64v-26.86c58.81-12.53 108.16-47.91 161.56-92.38z" fill="#fec093"/><path d="m424 160-48.62-27.78a31.953 31.953 0 0 0 -15.88-4.22h-47.25a23.985 23.985 0 0 0 -22.28 15.09l-4.03 10.05a83.234 83.234 0 0 0 -5.94 30.86h8.08a15.947 15.947 0 0 0 15.92 16h56a54.692 54.692 0 0 0 38.63 16h57.37v-56zm-112 8 8-8 32 8z" fill="#4db7e5"/><path d="m321.28 232.83 12.23 39.17-45.51 8-12.55-35.55a77.215 77.215 0 0 1 5.03-62.66l7.52-13.79h48.01l-11.6 23.75a55.909 55.909 0 0 0 -3.13 41.08z" fill="#ebebe9"/><path d="m336.01 168-11.6 23.75a55.333 55.333 0 0 0 -5.21 17.5c-21.12 6.26-36.26 14.04-47.11 22.13a77.2 77.2 0 0 1 8.39-49.59l7.52-13.79z" fill="#e0e0de"/><path d="m312 168h-7.144c-7.97 0-15.357 5.446-16.637 13.312a16.011 16.011 0 0 0 15.781 18.688h40v-32z" fill="#4db7e5"/><path d="m312 168h40l-32-8z" fill="none"/><path d="m456 160v56h-57.37a54.66 54.66 0 0 1 -30.78-9.5c21.01-11.75 41.8-26.93 59.56-46.5z" fill="#48add9"/><path d="m456 160h16v48h-16z" fill="#fec093"/></svg>